<svg width="199" height="199" viewBox="0 0 199 199" fill="none" xmlns="http://www.w3.org/2000/svg">
<circle cx="99.5" cy="99.5" r="99.5" fill="#4DB5C1"/>
<path d="M42.496 79.268V83.11H36.172V103H31.412V83.11H25.088V79.268H42.496ZM54.333 103.306C52.5197 103.306 50.8877 102.909 49.437 102.116C47.9864 101.3 46.8417 100.155 46.003 98.682C45.187 97.2087 44.779 95.5087 44.779 93.582C44.779 91.6553 45.1984 89.9553 46.037 88.482C46.8984 87.0087 48.0657 85.8753 49.539 85.082C51.0124 84.266 52.6557 83.858 54.469 83.858C56.2824 83.858 57.9257 84.266 59.399 85.082C60.8724 85.8753 62.0284 87.0087 62.867 88.482C63.7284 89.9553 64.159 91.6553 64.159 93.582C64.159 95.5087 63.717 97.2087 62.833 98.682C61.9717 100.155 60.793 101.3 59.297 102.116C57.8237 102.909 56.169 103.306 54.333 103.306ZM54.333 99.158C55.1944 99.158 55.999 98.954 56.747 98.546C57.5177 98.1153 58.1297 97.4807 58.583 96.642C59.0364 95.8033 59.263 94.7833 59.263 93.582C59.263 91.7913 58.787 90.42 57.835 89.468C56.9057 88.4933 55.761 88.006 54.401 88.006C53.041 88.006 51.8964 88.4933 50.967 89.468C50.0604 90.42 49.607 91.7913 49.607 93.582C49.607 95.3727 50.049 96.7553 50.933 97.73C51.8397 98.682 52.973 99.158 54.333 99.158ZM85.4327 84.164V103H80.6387V100.62C80.0267 101.436 79.222 102.082 78.2247 102.558C77.25 103.011 76.1847 103.238 75.0287 103.238C73.5554 103.238 72.252 102.932 71.1187 102.32C69.9854 101.685 69.09 100.767 68.4327 99.566C67.798 98.342 67.4807 96.8913 67.4807 95.214V84.164H72.2407V94.534C72.2407 96.03 72.6147 97.186 73.3627 98.002C74.1107 98.7953 75.1307 99.192 76.4227 99.192C77.7374 99.192 78.7687 98.7953 79.5167 98.002C80.2647 97.186 80.6387 96.03 80.6387 94.534V84.164H85.4327ZM94.8892 87.088C95.5012 86.0907 96.2945 85.3087 97.2692 84.742C98.2665 84.1753 99.3999 83.892 100.669 83.892V88.89H99.4112C97.9152 88.89 96.7819 89.2413 96.0112 89.944C95.2632 90.6467 94.8892 91.8707 94.8892 93.616V103H90.1292V84.164H94.8892V87.088ZM106.289 81.92C105.451 81.92 104.748 81.6593 104.181 81.138C103.637 80.594 103.365 79.9253 103.365 79.132C103.365 78.3387 103.637 77.6813 104.181 77.16C104.748 76.616 105.451 76.344 106.289 76.344C107.128 76.344 107.819 76.616 108.363 77.16C108.93 77.6813 109.213 78.3387 109.213 79.132C109.213 79.9253 108.93 80.594 108.363 81.138C107.819 81.6593 107.128 81.92 106.289 81.92ZM108.635 84.164V103H103.875V84.164H108.635ZM120.546 103.306C119.005 103.306 117.622 103.034 116.398 102.49C115.174 101.923 114.2 101.164 113.474 100.212C112.772 99.26 112.386 98.206 112.318 97.05H117.112C117.203 97.7753 117.554 98.376 118.166 98.852C118.801 99.328 119.583 99.566 120.512 99.566C121.419 99.566 122.122 99.3847 122.62 99.022C123.142 98.6593 123.402 98.1947 123.402 97.628C123.402 97.016 123.085 96.5627 122.45 96.268C121.838 95.9507 120.852 95.6107 119.492 95.248C118.087 94.908 116.931 94.5567 116.024 94.194C115.14 93.8313 114.37 93.276 113.712 92.528C113.078 91.78 112.76 90.7713 112.76 89.502C112.76 88.4593 113.055 87.5073 113.644 86.646C114.256 85.7847 115.118 85.1047 116.228 84.606C117.362 84.1073 118.688 83.858 120.206 83.858C122.45 83.858 124.241 84.4247 125.578 85.558C126.916 86.6687 127.652 88.176 127.788 90.08H123.232C123.164 89.332 122.847 88.7427 122.28 88.312C121.736 87.8587 121 87.632 120.07 87.632C119.209 87.632 118.54 87.7907 118.064 88.108C117.611 88.4253 117.384 88.8673 117.384 89.434C117.384 90.0687 117.702 90.556 118.336 90.896C118.971 91.2133 119.957 91.542 121.294 91.882C122.654 92.222 123.776 92.5733 124.66 92.936C125.544 93.2987 126.304 93.8653 126.938 94.636C127.596 95.384 127.936 96.3813 127.958 97.628C127.958 98.716 127.652 99.6907 127.04 100.552C126.451 101.413 125.59 102.093 124.456 102.592C123.346 103.068 122.042 103.306 120.546 103.306ZM137.408 88.074V97.186C137.408 97.8207 137.555 98.2853 137.85 98.58C138.167 98.852 138.688 98.988 139.414 98.988H141.624V103H138.632C134.62 103 132.614 101.051 132.614 97.152V88.074H130.37V84.164H132.614V79.506H137.408V84.164H141.624V88.074H137.408ZM143.823 93.514C143.823 91.61 144.197 89.9213 144.945 88.448C145.716 86.9747 146.747 85.8413 148.039 85.048C149.354 84.2547 150.816 83.858 152.425 83.858C153.831 83.858 155.055 84.1413 156.097 84.708C157.163 85.2747 158.013 85.9887 158.647 86.85V84.164H163.441V103H158.647V100.246C158.035 101.13 157.185 101.867 156.097 102.456C155.032 103.023 153.797 103.306 152.391 103.306C150.805 103.306 149.354 102.898 148.039 102.082C146.747 101.266 145.716 100.121 144.945 98.648C144.197 97.152 143.823 95.4407 143.823 93.514ZM158.647 93.582C158.647 92.426 158.421 91.44 157.967 90.624C157.514 89.7853 156.902 89.1507 156.131 88.72C155.361 88.2667 154.533 88.04 153.649 88.04C152.765 88.04 151.949 88.2553 151.201 88.686C150.453 89.1167 149.841 89.7513 149.365 90.59C148.912 91.406 148.685 92.3807 148.685 93.514C148.685 94.6473 148.912 95.6447 149.365 96.506C149.841 97.3447 150.453 97.9907 151.201 98.444C151.972 98.8973 152.788 99.124 153.649 99.124C154.533 99.124 155.361 98.9087 156.131 98.478C156.902 98.0247 157.514 97.39 157.967 96.574C158.421 95.7353 158.647 94.738 158.647 93.582ZM170.198 103.238C169.337 103.238 168.623 102.977 168.056 102.456C167.512 101.912 167.24 101.243 167.24 100.45C167.24 99.6567 167.512 98.9993 168.056 98.478C168.623 97.934 169.337 97.662 170.198 97.662C171.037 97.662 171.728 97.934 172.272 98.478C172.816 98.9993 173.088 99.6567 173.088 100.45C173.088 101.243 172.816 101.912 172.272 102.456C171.728 102.977 171.037 103.238 170.198 103.238Z" fill="white"/>
<path d="M54.3943 123.024C54.3943 123.744 54.1583 124.324 53.6863 124.764C53.2143 125.204 52.5063 125.424 51.5623 125.424H49.8703V129H49.0303V120.612H51.5623C52.4983 120.612 53.2023 120.832 53.6743 121.272C54.1543 121.712 54.3943 122.296 54.3943 123.024ZM51.5623 124.704C52.8743 124.704 53.5303 124.144 53.5303 123.024C53.5303 122.464 53.3743 122.04 53.0623 121.752C52.7503 121.464 52.2503 121.32 51.5623 121.32H49.8703V124.704H51.5623ZM55.4198 125.712C55.4198 125.04 55.5518 124.452 55.8158 123.948C56.0878 123.436 56.4598 123.044 56.9318 122.772C57.4118 122.492 57.9518 122.352 58.5518 122.352C59.1758 122.352 59.7118 122.496 60.1598 122.784C60.6158 123.072 60.9438 123.44 61.1438 123.888V122.448H61.9838V129H61.1438V127.548C60.9358 127.996 60.6038 128.368 60.1478 128.664C59.6998 128.952 59.1638 129.096 58.5398 129.096C57.9478 129.096 57.4118 128.956 56.9318 128.676C56.4598 128.396 56.0878 128 55.8158 127.488C55.5518 126.976 55.4198 126.384 55.4198 125.712ZM61.1438 125.724C61.1438 125.196 61.0358 124.732 60.8198 124.332C60.6038 123.932 60.3078 123.624 59.9318 123.408C59.5638 123.192 59.1558 123.084 58.7078 123.084C58.2438 123.084 57.8278 123.188 57.4598 123.396C57.0918 123.604 56.7998 123.908 56.5838 124.308C56.3758 124.7 56.2718 125.168 56.2718 125.712C56.2718 126.248 56.3758 126.72 56.5838 127.128C56.7998 127.528 57.0918 127.836 57.4598 128.052C57.8278 128.26 58.2438 128.364 58.7078 128.364C59.1558 128.364 59.5638 128.256 59.9318 128.04C60.3078 127.824 60.6038 127.516 60.8198 127.116C61.0358 126.716 61.1438 126.252 61.1438 125.724ZM66.9734 122.328C67.7574 122.328 68.3974 122.572 68.8934 123.06C69.3894 123.54 69.6374 124.24 69.6374 125.16V129H68.8094V125.256C68.8094 124.544 68.6294 124 68.2694 123.624C67.9174 123.248 67.4334 123.06 66.8174 123.06C66.1854 123.06 65.6814 123.26 65.3054 123.66C64.9294 124.06 64.7414 124.648 64.7414 125.424V129H63.9014V122.448H64.7414V123.564C64.9494 123.164 65.2494 122.86 65.6414 122.652C66.0334 122.436 66.4774 122.328 66.9734 122.328ZM71.1112 125.712C71.1112 125.04 71.2472 124.452 71.5192 123.948C71.7912 123.436 72.1632 123.044 72.6352 122.772C73.1152 122.492 73.6552 122.352 74.2552 122.352C74.8312 122.352 75.3512 122.492 75.8152 122.772C76.2792 123.052 76.6192 123.416 76.8352 123.864V120.12H77.6752V129H76.8352V127.536C76.6352 127.992 76.3072 128.368 75.8512 128.664C75.3952 128.952 74.8592 129.096 74.2432 129.096C73.6432 129.096 73.1032 128.956 72.6232 128.676C72.1512 128.396 71.7792 128 71.5072 127.488C71.2432 126.976 71.1112 126.384 71.1112 125.712ZM76.8352 125.724C76.8352 125.196 76.7272 124.732 76.5112 124.332C76.2952 123.932 75.9992 123.624 75.6232 123.408C75.2552 123.192 74.8472 123.084 74.3992 123.084C73.9352 123.084 73.5192 123.188 73.1512 123.396C72.7832 123.604 72.4912 123.908 72.2752 124.308C72.0672 124.7 71.9632 125.168 71.9632 125.712C71.9632 126.248 72.0672 126.72 72.2752 127.128C72.4912 127.528 72.7832 127.836 73.1512 128.052C73.5192 128.26 73.9352 128.364 74.3992 128.364C74.8472 128.364 75.2552 128.256 75.6232 128.04C75.9992 127.824 76.2952 127.516 76.5112 127.116C76.7272 126.716 76.8352 126.252 76.8352 125.724ZM85.2688 122.448V129H84.4288V127.848C84.2368 128.256 83.9408 128.568 83.5408 128.784C83.1408 129 82.6928 129.108 82.1968 129.108C81.4128 129.108 80.7728 128.868 80.2768 128.388C79.7808 127.9 79.5328 127.196 79.5328 126.276V122.448H80.3608V126.18C80.3608 126.892 80.5368 127.436 80.8888 127.812C81.2488 128.188 81.7368 128.376 82.3528 128.376C82.9848 128.376 83.4888 128.176 83.8648 127.776C84.2408 127.376 84.4288 126.788 84.4288 126.012V122.448H85.2688ZM95.3875 120.612V121.308H93.0595V129H92.2195V121.308H89.8795V120.612H95.3875ZM102.642 125.388C102.642 125.676 102.634 125.896 102.618 126.048H97.1819C97.2059 126.544 97.3259 126.968 97.5419 127.32C97.7579 127.672 98.0419 127.94 98.3939 128.124C98.7459 128.3 99.1299 128.388 99.5459 128.388C100.09 128.388 100.546 128.256 100.914 127.992C101.29 127.728 101.538 127.372 101.658 126.924H102.546C102.386 127.564 102.042 128.088 101.514 128.496C100.994 128.896 100.338 129.096 99.5459 129.096C98.9299 129.096 98.3779 128.96 97.8899 128.688C97.4019 128.408 97.0179 128.016 96.7379 127.512C96.4659 127 96.3299 126.404 96.3299 125.724C96.3299 125.044 96.4659 124.448 96.7379 123.936C97.0099 123.424 97.3899 123.032 97.8779 122.76C98.3659 122.488 98.9219 122.352 99.5459 122.352C100.17 122.352 100.714 122.488 101.178 122.76C101.65 123.032 102.01 123.4 102.258 123.864C102.514 124.32 102.642 124.828 102.642 125.388ZM101.79 125.364C101.798 124.876 101.698 124.46 101.49 124.116C101.29 123.772 101.014 123.512 100.662 123.336C100.31 123.16 99.9259 123.072 99.5099 123.072C98.8859 123.072 98.3539 123.272 97.9139 123.672C97.4739 124.072 97.2299 124.636 97.1819 125.364H101.79ZM106.435 129.096C105.683 129.096 105.067 128.924 104.587 128.58C104.115 128.228 103.851 127.752 103.795 127.152H104.659C104.699 127.52 104.871 127.82 105.175 128.052C105.487 128.276 105.903 128.388 106.423 128.388C106.879 128.388 107.235 128.28 107.491 128.064C107.755 127.848 107.887 127.58 107.887 127.26C107.887 127.036 107.815 126.852 107.671 126.708C107.527 126.564 107.343 126.452 107.119 126.372C106.903 126.284 106.607 126.192 106.231 126.096C105.743 125.968 105.347 125.84 105.043 125.712C104.739 125.584 104.479 125.396 104.263 125.148C104.055 124.892 103.951 124.552 103.951 124.128C103.951 123.808 104.047 123.512 104.239 123.24C104.431 122.968 104.703 122.752 105.055 122.592C105.407 122.432 105.807 122.352 106.255 122.352C106.959 122.352 107.527 122.532 107.959 122.892C108.391 123.244 108.623 123.732 108.655 124.356H107.815C107.791 123.972 107.639 123.664 107.359 123.432C107.087 123.192 106.711 123.072 106.231 123.072C105.807 123.072 105.463 123.172 105.199 123.372C104.935 123.572 104.803 123.82 104.803 124.116C104.803 124.372 104.879 124.584 105.031 124.752C105.191 124.912 105.387 125.04 105.619 125.136C105.851 125.224 106.163 125.324 106.555 125.436C107.027 125.564 107.403 125.688 107.683 125.808C107.963 125.928 108.203 126.104 108.403 126.336C108.603 126.568 108.707 126.876 108.715 127.26C108.715 127.612 108.619 127.928 108.427 128.208C108.235 128.48 107.967 128.696 107.623 128.856C107.279 129.016 106.883 129.096 106.435 129.096ZM111.388 123.156V127.224C111.388 127.624 111.464 127.9 111.616 128.052C111.768 128.204 112.036 128.28 112.42 128.28H113.188V129H112.288C111.696 129 111.256 128.864 110.968 128.592C110.68 128.312 110.536 127.856 110.536 127.224V123.156H109.624V122.448H110.536V120.804H111.388V122.448H113.188V123.156H111.388ZM128.042 120.612L125.666 129H124.73L122.618 121.848L120.458 129L119.546 129.012L117.218 120.612H118.118L120.038 127.968L122.186 120.612H123.122L125.21 127.968L127.142 120.612H128.042ZM135.255 125.388C135.255 125.676 135.247 125.896 135.231 126.048H129.795C129.819 126.544 129.939 126.968 130.155 127.32C130.371 127.672 130.655 127.94 131.007 128.124C131.359 128.3 131.743 128.388 132.159 128.388C132.703 128.388 133.159 128.256 133.527 127.992C133.903 127.728 134.151 127.372 134.271 126.924H135.159C134.999 127.564 134.655 128.088 134.127 128.496C133.607 128.896 132.951 129.096 132.159 129.096C131.543 129.096 130.991 128.96 130.503 128.688C130.015 128.408 129.631 128.016 129.351 127.512C129.079 127 128.943 126.404 128.943 125.724C128.943 125.044 129.079 124.448 129.351 123.936C129.623 123.424 130.003 123.032 130.491 122.76C130.979 122.488 131.535 122.352 132.159 122.352C132.783 122.352 133.327 122.488 133.791 122.76C134.263 123.032 134.623 123.4 134.871 123.864C135.127 124.32 135.255 124.828 135.255 125.388ZM134.403 125.364C134.411 124.876 134.311 124.46 134.103 124.116C133.903 123.772 133.627 123.512 133.275 123.336C132.923 123.16 132.539 123.072 132.123 123.072C131.499 123.072 130.967 123.272 130.527 123.672C130.087 124.072 129.843 124.636 129.795 125.364H134.403ZM137.62 123.9C137.836 123.444 138.168 123.072 138.616 122.784C139.072 122.496 139.608 122.352 140.224 122.352C140.824 122.352 141.36 122.492 141.832 122.772C142.304 123.044 142.672 123.436 142.936 123.948C143.208 124.452 143.344 125.04 143.344 125.712C143.344 126.384 143.208 126.976 142.936 127.488C142.672 128 142.3 128.396 141.82 128.676C141.348 128.956 140.816 129.096 140.224 129.096C139.6 129.096 139.06 128.956 138.604 128.676C138.156 128.388 137.828 128.016 137.62 127.56V129H136.792V120.12H137.62V123.9ZM142.492 125.712C142.492 125.168 142.384 124.7 142.168 124.308C141.96 123.908 141.672 123.604 141.304 123.396C140.936 123.188 140.52 123.084 140.056 123.084C139.608 123.084 139.196 123.192 138.82 123.408C138.452 123.624 138.16 123.932 137.944 124.332C137.728 124.732 137.62 125.196 137.62 125.724C137.62 126.252 137.728 126.716 137.944 127.116C138.16 127.516 138.452 127.824 138.82 128.04C139.196 128.256 139.608 128.364 140.056 128.364C140.52 128.364 140.936 128.26 141.304 128.052C141.672 127.836 141.96 127.528 142.168 127.128C142.384 126.72 142.492 126.248 142.492 125.712Z" fill="white"/>
</svg>
